<?xml version="1.0" encoding="UTF-8"?>
<!DOCTYPE svg PUBLIC "-//W3C//DTD SVG 1.1//EN" "http://www.w3.org/Graphics/SVG/1.1/DTD/svg11.dtd">
<svg xmlns="http://www.w3.org/2000/svg" version="1.1" width="1920px" height="1441px" style="shape-rendering:geometricPrecision; text-rendering:geometricPrecision; image-rendering:optimizeQuality; fill-rule:evenodd; clip-rule:evenodd" xmlns:xlink="http://www.w3.org/1999/xlink">
<g><path style="opacity:1" fill="#c5ebfe" d="M -0.5,-0.5 C 639.5,-0.5 1279.5,-0.5 1919.5,-0.5C 1919.5,479.833 1919.5,960.167 1919.5,1440.5C 1279.5,1440.5 639.5,1440.5 -0.5,1440.5C -0.5,960.167 -0.5,479.833 -0.5,-0.5 Z"/></g>
<g><path style="opacity:1" fill="#d3faff" d="M 1762.5,335.5 C 1441.17,335.5 1119.83,335.5 798.5,335.5C 797.5,544.333 797.167,753.333 797.5,962.5C 796.5,753.334 796.167,544.001 796.5,334.5C 1118.67,334.167 1440.67,334.5 1762.5,335.5 Z"/></g>
<g><path style="opacity:1" fill="#000000" d="M 798.5,335.5 C 1119.83,335.5 1441.17,335.5 1762.5,335.5C 1762.5,544.5 1762.5,753.5 1762.5,962.5C 1635.67,962.167 1509,962.5 1382.5,963.5C 1382.5,1020.83 1382.5,1078.17 1382.5,1135.5C 1432.17,1135.5 1481.83,1135.5 1531.5,1135.5C 1531.5,1148.5 1531.5,1161.5 1531.5,1174.5C 1589.83,1174.5 1648.17,1174.5 1706.5,1174.5C 1724,1175.33 1741.66,1175.83 1759.5,1176C 1726.5,1176.33 1693.5,1176.67 1660.5,1177C 1253.83,1177.5 847.167,1177.67 440.5,1177.5C 368.833,1177.5 297.167,1177.5 225.5,1177.5C 193.84,1176.79 162.173,1176.29 130.5,1176C 178.499,1175.5 226.499,1175.33 274.5,1175.5C 274.5,1164.83 274.5,1154.17 274.5,1143.5C 279.5,1143.5 284.5,1143.5 289.5,1143.5C 290.499,1075.67 290.833,1007.67 290.5,939.5C 343.504,939.833 396.504,939.5 449.5,938.5C 449.376,937.893 449.043,937.56 448.5,937.5C 448.5,937.167 448.5,936.833 448.5,936.5C 445.163,926.817 443.497,916.817 443.5,906.5C 463.512,914.478 484.179,916.978 505.5,914C 517.295,912.411 527.461,907.578 536,899.5C 538.347,896.806 540.18,893.806 541.5,890.5C 562.88,890.613 584.214,891.613 605.5,893.5C 610.569,896.855 616.235,898.521 622.5,898.5C 637.303,905.149 646.47,916.482 650,932.5C 654.494,952.922 657.161,973.588 658,994.5C 658.573,1043.17 658.406,1091.84 657.5,1140.5C 656.513,1145.31 656.179,1150.31 656.5,1155.5C 658.167,1155.5 659.833,1155.5 661.5,1155.5C 668.483,1155.41 674.983,1157.08 681,1160.5C 682.094,1162.08 682.928,1163.74 683.5,1165.5C 683.5,1168.5 683.5,1171.5 683.5,1174.5C 798.001,1174.83 912.335,1174.5 1026.5,1173.5C 1026.5,1160.83 1026.5,1148.17 1026.5,1135.5C 1076.34,1135.83 1126,1135.5 1175.5,1134.5C 1175.5,1077.5 1175.5,1020.5 1175.5,963.5C 1050,962.5 924.334,962.167 798.5,962.5C 798.5,753.5 798.5,544.5 798.5,335.5 Z"/></g>
<g><path style="opacity:1" fill="#5d6f78" d="M 1762.5,335.5 C 1763.83,544.833 1763.83,754.167 1762.5,963.5C 1635.83,963.5 1509.17,963.5 1382.5,963.5C 1509,962.5 1635.67,962.167 1762.5,962.5C 1762.5,753.5 1762.5,544.5 1762.5,335.5 Z"/></g>
<g><path style="opacity:1" fill="#fefefe" d="M 822.5,363.5 C 1127.83,363.5 1433.17,363.5 1738.5,363.5C 1738.5,552.833 1738.5,742.167 1738.5,931.5C 1433.17,931.5 1127.83,931.5 822.5,931.5C 822.5,742.167 822.5,552.833 822.5,363.5 Z"/></g>
<g><path style="opacity:1" fill="#253740" d="M 1352.5,464.5 C 1196.83,464.5 1041.17,464.5 885.5,464.5C 885.5,448.833 885.5,433.167 885.5,417.5C 1041.17,417.5 1196.83,417.5 1352.5,417.5C 1352.5,433.167 1352.5,448.833 1352.5,464.5 Z"/></g>
<g><path style="opacity:1" fill="#384850" d="M 886.5,418.5 C 1041.5,418.5 1196.5,418.5 1351.5,418.5C 1351.5,433.5 1351.5,448.5 1351.5,463.5C 1196.5,463.5 1041.5,463.5 886.5,463.5C 886.5,448.5 886.5,433.5 886.5,418.5 Z"/></g>
<g><path style="opacity:1" fill="#929191" d="M 925.5,442.5 C 941.167,442.5 956.833,442.5 972.5,442.5C 972.5,444.5 972.5,446.5 972.5,448.5C 956.833,448.5 941.167,448.5 925.5,448.5C 925.5,446.5 925.5,444.5 925.5,442.5 Z"/></g>
<g><path style="opacity:1" fill="#f90302" d="M 903.5,434.5 C 911.125,433.469 915.792,436.636 917.5,444C 916.12,452.027 911.453,455.027 903.5,453C 898.574,450.647 896.74,446.814 898,441.5C 898.967,438.379 900.8,436.046 903.5,434.5 Z"/></g>
<g><path style="opacity:1" fill="#e6e6e6" d="M 885.5,464.5 C 1041.17,464.5 1196.83,464.5 1352.5,464.5C 1352.5,525.833 1352.5,587.167 1352.5,648.5C 1196.83,648.5 1041.17,648.5 885.5,648.5C 885.5,587.167 885.5,525.833 885.5,464.5 Z"/></g>
<g><path style="opacity:1" fill="#fe0503" d="M 1064.5,617.5 C 1020.83,618.833 977.167,618.833 933.5,617.5C 954.804,578.896 976.637,540.563 999,502.5C 1020.85,540.861 1042.68,579.194 1064.5,617.5 Z"/></g>
<g><path style="opacity:1" fill="#0d0d0d" d="M 1225.5,526.5 C 1243.04,524.906 1252.7,532.739 1254.5,550C 1252.78,568.215 1242.78,575.881 1224.5,573C 1211.21,566.466 1206.37,555.966 1210,541.5C 1213.11,534.225 1218.27,529.225 1225.5,526.5 Z"/></g>
<g><path style="opacity:1" fill="#121212" d="M 1085.5,526.5 C 1096.5,526.5 1107.5,526.5 1118.5,526.5C 1118.5,530.5 1118.5,534.5 1118.5,538.5C 1114.09,538.938 1112.43,536.938 1113.5,532.5C 1107.83,532.5 1102.17,532.5 1096.5,532.5C 1096.5,537.5 1096.5,542.5 1096.5,547.5C 1102.17,547.5 1107.83,547.5 1113.5,547.5C 1113.5,549.167 1113.5,550.833 1113.5,552.5C 1107.83,552.5 1102.17,552.5 1096.5,552.5C 1096.5,557.833 1096.5,563.167 1096.5,568.5C 1102.17,568.5 1107.83,568.5 1113.5,568.5C 1112.43,564.062 1114.09,562.062 1118.5,562.5C 1118.5,566.167 1118.5,569.833 1118.5,573.5C 1107.5,573.5 1096.5,573.5 1085.5,573.5C 1084.83,569.5 1086.5,567.833 1090.5,568.5C 1090.5,556.167 1090.5,543.833 1090.5,531.5C 1086.5,532.167 1084.83,530.5 1085.5,526.5 Z"/></g>
<g><path style="opacity:1" fill="#131313" d="M 1123.5,526.5 C 1130.84,526.334 1138.17,526.5 1145.5,527C 1155.85,529.339 1159.35,535.506 1156,545.5C 1153.91,549.302 1150.75,551.802 1146.5,553C 1150.12,557.745 1153.62,562.578 1157,567.5C 1161.11,567.471 1162.94,569.471 1162.5,573.5C 1159.81,573.664 1157.15,573.497 1154.5,573C 1149.64,566.975 1144.97,560.809 1140.5,554.5C 1138.59,553.652 1136.59,553.318 1134.5,553.5C 1134.17,558.544 1134.51,563.544 1135.5,568.5C 1137.77,569.375 1138.77,571.042 1138.5,573.5C 1133.5,573.5 1128.5,573.5 1123.5,573.5C 1122.76,570.05 1124.09,568.384 1127.5,568.5C 1127.5,556.167 1127.5,543.833 1127.5,531.5C 1124.09,531.616 1122.76,529.95 1123.5,526.5 Z"/></g>
<g><path style="opacity:1" fill="#0c0c0c" d="M 1181.5,569.5 C 1181.5,570.5 1181.5,571.5 1181.5,572.5C 1176.5,572.5 1171.5,572.5 1166.5,572.5C 1166.38,569.09 1168.05,567.756 1171.5,568.5C 1171.5,556.167 1171.5,543.833 1171.5,531.5C 1167.5,532.167 1165.83,530.5 1166.5,526.5C 1173.84,526.334 1181.17,526.5 1188.5,527C 1198.87,529.243 1202.37,535.41 1199,545.5C 1196.91,549.302 1193.75,551.802 1189.5,553C 1193.05,557.923 1196.71,562.756 1200.5,567.5C 1204.37,567.705 1206.04,569.705 1205.5,573.5C 1202.81,573.664 1200.15,573.497 1197.5,573C 1192.83,566.667 1188.17,560.333 1183.5,554C 1181.53,553.505 1179.53,553.338 1177.5,553.5C 1177.17,558.544 1177.51,563.544 1178.5,568.5C 1179.42,569.127 1180.42,569.461 1181.5,569.5 Z"/></g>
<g><path style="opacity:1" fill="#111111" d="M 1274.5,554.5 C 1272.74,553.539 1270.74,553.205 1268.5,553.5C 1268.18,558.695 1268.51,563.695 1269.5,568.5C 1272.48,568.787 1273.82,570.454 1273.5,573.5C 1268.5,573.5 1263.5,573.5 1258.5,573.5C 1257.76,570.05 1259.09,568.384 1262.5,568.5C 1262.5,556.167 1262.5,543.833 1262.5,531.5C 1259.09,531.616 1257.76,529.95 1258.5,526.5C 1265.84,526.334 1273.17,526.5 1280.5,527C 1293.32,531.473 1295.66,539.14 1287.5,550C 1285.5,551 1283.5,552 1281.5,553C 1285,557.833 1288.5,562.667 1292,567.5C 1296.11,567.471 1297.94,569.471 1297.5,573.5C 1294.81,573.664 1292.15,573.497 1289.5,573C 1284.64,566.645 1279.64,560.478 1274.5,554.5 Z"/></g>
<g><path style="opacity:1" fill="#fffbfb" d="M 991.5,529.5 C 995.167,529.5 998.833,529.5 1002.5,529.5C 1001.62,548.508 1000.62,567.508 999.5,586.5C 997.833,586.5 996.167,586.5 994.5,586.5C 993.666,567.491 992.666,548.491 991.5,529.5 Z"/></g>
<g><path style="opacity:1" fill="#6b6b6b" d="M 1143.5,532.5 C 1140.5,532.5 1137.5,532.5 1134.5,532.5C 1134.5,538.167 1134.5,543.833 1134.5,549.5C 1133.51,543.69 1133.18,537.69 1133.5,531.5C 1137.04,531.187 1140.38,531.521 1143.5,532.5 Z"/></g>
<g><path style="opacity:1" fill="#e6e6e6" d="M 1143.5,532.5 C 1146.1,532.549 1148.27,533.549 1150,535.5C 1151.23,546.762 1146.06,551.428 1134.5,549.5C 1134.5,543.833 1134.5,538.167 1134.5,532.5C 1137.5,532.5 1140.5,532.5 1143.5,532.5 Z"/></g>
<g><path style="opacity:1" fill="#e3e3e3" d="M 1177.5,531.5 C 1183.28,530.708 1188.45,532.041 1193,535.5C 1195.53,542.266 1193.37,546.766 1186.5,549C 1183.52,549.498 1180.52,549.665 1177.5,549.5C 1177.5,543.5 1177.5,537.5 1177.5,531.5 Z"/></g>
<g><path style="opacity:1" fill="#e5e5e5" d="M 1225.5,532.5 C 1243.48,531.32 1250.64,539.653 1247,557.5C 1242.35,567.213 1234.85,570.379 1224.5,567C 1216.16,561.324 1213.33,553.49 1216,543.5C 1217.6,538.406 1220.77,534.739 1225.5,532.5 Z"/></g>
<g><path style="opacity:1" fill="#767676" d="M 1278.5,532.5 C 1275.5,532.5 1272.5,532.5 1269.5,532.5C 1269.5,538.167 1269.5,543.833 1269.5,549.5C 1268.51,543.69 1268.18,537.69 1268.5,531.5C 1272.04,531.187 1275.38,531.521 1278.5,532.5 Z"/></g>
<g><path style="opacity:1" fill="#e6e6e6" d="M 1278.5,532.5 C 1281.1,532.549 1283.27,533.549 1285,535.5C 1286.23,546.762 1281.06,551.428 1269.5,549.5C 1269.5,543.833 1269.5,538.167 1269.5,532.5C 1272.5,532.5 1275.5,532.5 1278.5,532.5 Z"/></g>
<g><path style="opacity:1" fill="#686868" d="M 1274.5,554.5 C 1272.83,554.5 1271.17,554.5 1269.5,554.5C 1269.5,559.167 1269.5,563.833 1269.5,568.5C 1268.51,563.695 1268.18,558.695 1268.5,553.5C 1270.74,553.205 1272.74,553.539 1274.5,554.5 Z"/></g>
<g><path style="opacity:1" fill="#5e5e5e" d="M 1181.5,569.5 C 1182.43,570.568 1182.77,571.901 1182.5,573.5C 1176.97,573.821 1171.64,573.488 1166.5,572.5C 1171.5,572.5 1176.5,572.5 1181.5,572.5C 1181.5,571.5 1181.5,570.5 1181.5,569.5 Z"/></g>
<g><path style="opacity:1" fill="#fff4f3" d="M 994.5,589.5 C 1002.24,589.738 1004.24,593.238 1000.5,600C 995.308,601.872 992.308,600.205 991.5,595C 991.863,592.808 992.863,590.974 994.5,589.5 Z"/></g>
<g><path style="opacity:1" fill="#f55757" d="M 933.5,617.5 C 977.167,618.833 1020.83,618.833 1064.5,617.5C 1065.04,617.56 1065.38,617.893 1065.5,618.5C 1021.17,619.833 976.833,619.833 932.5,618.5C 932.624,617.893 932.957,617.56 933.5,617.5 Z"/></g>
<g><path style="opacity:1" fill="#e6e6e6" d="M 1386.5,642.5 C 1483.17,642.5 1579.83,642.5 1676.5,642.5C 1676.5,647.167 1676.5,651.833 1676.5,656.5C 1579.83,656.5 1483.17,656.5 1386.5,656.5C 1386.5,651.833 1386.5,647.167 1386.5,642.5 Z"/></g>
<g><path style="opacity:1" fill="#020202" d="M 749.5,727.5 C 749.953,726.542 750.619,725.708 751.5,725C 748.167,721.667 744.833,718.333 741.5,715C 736.015,712.968 731.182,714.135 727,718.5C 723.684,717.171 720.35,715.838 717,714.5C 712.902,715.976 708.902,717.642 705,719.5C 703.702,717.735 702.536,715.901 701.5,714C 703.653,711.178 705.819,708.344 708,705.5C 710.707,700.696 709.54,697.196 704.5,695C 698.796,693.685 693.796,695.018 689.5,699C 683.167,699.667 676.833,699.667 670.5,699C 666.218,697.555 663.551,694.722 662.5,690.5C 661.847,689.193 661.18,687.86 660.5,686.5C 663.14,682.421 665.306,678.088 667,673.5C 679.895,659.469 695.728,650.802 714.5,647.5C 717.592,647.507 720.592,648.007 723.5,649C 733.705,654.935 744.038,660.602 754.5,666C 759.876,671.435 763.376,677.935 765,685.5C 766.913,693.559 768.08,701.726 768.5,710C 768.57,715.316 767.737,720.483 766,725.5C 764.998,727.666 763.498,729.333 761.5,730.5C 757.843,728.284 753.843,727.284 749.5,727.5 Z"/></g>
<g><path style="opacity:1" fill="#b1b1b1" d="M 1386.5,669.5 C 1465.5,669.5 1544.5,669.5 1623.5,669.5C 1623.5,671.5 1623.5,673.5 1623.5,675.5C 1544.5,675.5 1465.5,675.5 1386.5,675.5C 1386.5,673.5 1386.5,671.5 1386.5,669.5 Z"/></g>
<g><path style="opacity:1" fill="#b1b1b1" d="M 1386.5,689.5 C 1478.5,689.5 1570.5,689.5 1662.5,689.5C 1662.5,691.5 1662.5,693.5 1662.5,695.5C 1570.5,695.5 1478.5,695.5 1386.5,695.5C 1386.5,693.5 1386.5,691.5 1386.5,689.5 Z"/></g>
<g><path style="opacity:1" fill="#feaa89" d="M 662.5,690.5 C 663.551,694.722 666.218,697.555 670.5,699C 676.833,699.667 683.167,699.667 689.5,699C 693.796,695.018 698.796,693.685 704.5,695C 709.54,697.196 710.707,700.696 708,705.5C 705.819,708.344 703.653,711.178 701.5,714C 702.536,715.901 703.702,717.735 705,719.5C 708.902,717.642 712.902,715.976 717,714.5C 720.35,715.838 723.684,717.171 727,718.5C 731.182,714.135 736.015,712.968 741.5,715C 744.833,718.333 748.167,721.667 751.5,725C 750.619,725.708 749.953,726.542 749.5,727.5C 747.066,730.438 744.399,733.271 741.5,736C 736.838,739.243 732.004,742.077 727,744.5C 724.349,750.142 721.515,755.642 718.5,761C 715.555,760.253 713.222,758.42 711.5,755.5C 707.385,760.223 703.552,760.223 700,755.5C 699.64,757.421 698.806,759.088 697.5,760.5C 694.557,761.244 691.557,761.744 688.5,762C 686.129,764.184 686.296,766.35 689,768.5C 693.124,772.615 696.624,777.115 699.5,782C 697.419,789.161 695.419,796.328 693.5,803.5C 686.615,800.558 679.615,797.892 672.5,795.5C 675,788.175 677.167,780.842 679,773.5C 676.083,775.393 672.916,775.893 669.5,775C 666.537,773.039 663.871,770.706 661.5,768C 665.017,766.076 668.684,764.409 672.5,763C 673.022,762.439 673.355,761.772 673.5,761C 670.612,752.391 666.779,744.224 662,736.5C 660.67,737.582 659.17,738.249 657.5,738.5C 655.046,724.638 653.38,710.638 652.5,696.5C 655.806,694.511 659.139,692.511 662.5,690.5 Z"/></g>
<g><path style="opacity:1" fill="#486e6a" d="M 652.5,696.5 C 653.38,710.638 655.046,724.638 657.5,738.5C 657.714,740.144 657.38,741.644 656.5,743C 651.635,744.619 646.968,746.619 642.5,749C 645.888,763.803 644.722,778.303 639,792.5C 635.056,802.056 631.389,811.723 628,821.5C 626.576,827.776 626.242,834.109 627,840.5C 628.388,841.554 629.888,841.72 631.5,841C 637.258,837.246 642.425,832.746 647,827.5C 655.298,816.512 663.798,805.845 672.5,795.5C 679.615,797.892 686.615,800.558 693.5,803.5C 694.634,805.966 694.801,808.633 694,811.5C 683.862,842.966 666.362,869.466 641.5,891C 635.515,894.67 629.181,897.17 622.5,898.5C 616.235,898.521 610.569,896.855 605.5,893.5C 598.729,887.998 593.896,880.998 591,872.5C 584.826,853.963 580.826,834.963 579,815.5C 572.097,822.967 566.43,831.301 562,840.5C 554.671,856.994 547.837,873.661 541.5,890.5C 540.18,893.806 538.347,896.806 536,899.5C 527.461,907.578 517.295,912.411 505.5,914C 484.179,916.978 463.512,914.478 443.5,906.5C 440.255,906.327 438.589,904.661 438.5,901.5C 439.675,861.15 451.175,824.15 473,790.5C 494.732,757.765 522.566,731.599 556.5,712C 586.815,695.695 618.815,690.528 652.5,696.5 Z"/></g>
<g><path style="opacity:1" fill="#e5e5e5" d="M 893.5,705.5 C 954.5,705.5 1015.5,705.5 1076.5,705.5C 1076.5,714.167 1076.5,722.833 1076.5,731.5C 1015.5,731.5 954.5,731.5 893.5,731.5C 893.5,722.833 893.5,714.167 893.5,705.5 Z"/></g>
<g><path style="opacity:1" fill="#b4b4b4" d="M 1386.5,708.5 C 1439.17,708.5 1491.83,708.5 1544.5,708.5C 1544.5,710.833 1544.5,713.167 1544.5,715.5C 1491.83,715.5 1439.17,715.5 1386.5,715.5C 1386.5,713.167 1386.5,710.833 1386.5,708.5 Z"/></g>
<g><path style="opacity:1" fill="#c5ebfd" d="M 672.5,795.5 C 663.798,805.845 655.298,816.512 647,827.5C 642.425,832.746 637.258,837.246 631.5,841C 629.888,841.72 628.388,841.554 627,840.5C 626.242,834.109 626.576,827.776 628,821.5C 631.389,811.723 635.056,802.056 639,792.5C 644.722,778.303 645.888,763.803 642.5,749C 646.968,746.619 651.635,744.619 656.5,743C 657.38,741.644 657.714,740.144 657.5,738.5C 659.17,738.249 660.67,737.582 662,736.5C 666.779,744.224 670.612,752.391 673.5,761C 673.355,761.772 673.022,762.439 672.5,763C 668.684,764.409 665.017,766.076 661.5,768C 663.871,770.706 666.537,773.039 669.5,775C 672.916,775.893 676.083,775.393 679,773.5C 677.167,780.842 675,788.175 672.5,795.5 Z"/></g>
<g><path style="opacity:1" fill="#e5e5e5" d="M 893.5,757.5 C 940.167,757.5 986.833,757.5 1033.5,757.5C 1033.5,766.167 1033.5,774.833 1033.5,783.5C 986.833,783.5 940.167,783.5 893.5,783.5C 893.5,774.833 893.5,766.167 893.5,757.5 Z"/></g>
<g><path style="opacity:1" fill="#e5e5e5" d="M 1103.5,757.5 C 1149.83,757.5 1196.17,757.5 1242.5,757.5C 1242.5,766.167 1242.5,774.833 1242.5,783.5C 1196.17,783.5 1149.83,783.5 1103.5,783.5C 1103.5,774.833 1103.5,766.167 1103.5,757.5 Z"/></g>
<g><path style="opacity:1" fill="#e5e5e5" d="M 893.5,801.5 C 954.5,801.5 1015.5,801.5 1076.5,801.5C 1076.5,810.167 1076.5,818.833 1076.5,827.5C 1015.5,827.5 954.5,827.5 893.5,827.5C 893.5,818.833 893.5,810.167 893.5,801.5 Z"/></g>
<g><path style="opacity:1" fill="#e5e5e5" d="M 1102.5,801.5 C 1163.83,801.5 1225.17,801.5 1286.5,801.5C 1286.5,810.167 1286.5,818.833 1286.5,827.5C 1225.17,827.5 1163.83,827.5 1102.5,827.5C 1102.5,818.833 1102.5,810.167 1102.5,801.5 Z"/></g>
<g><path style="opacity:1" fill="#b1b1b1" d="M 1458.5,814.5 C 1528.83,814.5 1599.17,814.5 1669.5,814.5C 1669.5,816.5 1669.5,818.5 1669.5,820.5C 1599.17,820.5 1528.83,820.5 1458.5,820.5C 1458.5,818.5 1458.5,816.5 1458.5,814.5 Z"/></g>
<g><path style="opacity:1" fill="#c5eafc" d="M 605.5,893.5 C 584.214,891.613 562.88,890.613 541.5,890.5C 547.837,873.661 554.671,856.994 562,840.5C 566.43,831.301 572.097,822.967 579,815.5C 580.826,834.963 584.826,853.963 591,872.5C 593.896,880.998 598.729,887.998 605.5,893.5 Z"/></g>
<g><path style="opacity:1" fill="#b1b1b1" d="M 1458.5,834.5 C 1528.83,834.5 1599.17,834.5 1669.5,834.5C 1669.5,836.5 1669.5,838.5 1669.5,840.5C 1599.17,840.5 1528.83,840.5 1458.5,840.5C 1458.5,838.5 1458.5,836.5 1458.5,834.5 Z"/></g>
<g><path style="opacity:1" fill="#e6e6e6" d="M 893.5,853.5 C 954.5,853.5 1015.5,853.5 1076.5,853.5C 1076.5,859.5 1076.5,865.5 1076.5,871.5C 1015.5,871.5 954.5,871.5 893.5,871.5C 893.5,865.5 893.5,859.5 893.5,853.5 Z"/></g>
<g><path style="opacity:1" fill="#e6e6e6" d="M 1102.5,853.5 C 1163.83,853.5 1225.17,853.5 1286.5,853.5C 1286.5,859.5 1286.5,865.5 1286.5,871.5C 1225.17,871.5 1163.83,871.5 1102.5,871.5C 1102.5,865.5 1102.5,859.5 1102.5,853.5 Z"/></g>
<g><path style="opacity:1" fill="#b5b5b5" d="M 1458.5,873.5 C 1528.83,873.5 1599.17,873.5 1669.5,873.5C 1669.5,875.833 1669.5,878.167 1669.5,880.5C 1599.17,880.5 1528.83,880.5 1458.5,880.5C 1458.5,878.167 1458.5,875.833 1458.5,873.5 Z"/></g>
<g><path style="opacity:1" fill="#b1b1b1" d="M 1458.5,893.5 C 1528.83,893.5 1599.17,893.5 1669.5,893.5C 1669.5,895.5 1669.5,897.5 1669.5,899.5C 1599.17,899.5 1528.83,899.5 1458.5,899.5C 1458.5,897.5 1458.5,895.5 1458.5,893.5 Z"/></g>
<g><path style="opacity:1" fill="#d6feff" d="M 448.5,936.5 C 448.5,936.833 448.5,937.167 448.5,937.5C 395.669,938.499 342.669,938.832 289.5,938.5C 342.402,937.829 395.402,937.162 448.5,936.5 Z"/></g>
<g><path style="opacity:1" fill="#3b464c" d="M 448.5,937.5 C 449.043,937.56 449.376,937.893 449.5,938.5C 396.504,939.5 343.504,939.833 290.5,939.5C 290.833,1007.67 290.499,1075.67 289.5,1143.5C 289.5,1075.17 289.5,1006.83 289.5,938.5C 342.669,938.832 395.669,938.499 448.5,937.5 Z"/></g>
<g><path style="opacity:1" fill="#c5eafc" d="M 572.5,943.5 C 573.5,943.5 574.5,943.5 575.5,943.5C 582.134,1014.18 588.968,1084.84 596,1155.5C 596.849,1161.96 596.349,1168.3 594.5,1174.5C 587.167,1174.5 579.833,1174.5 572.5,1174.5C 572.5,1164.17 572.5,1153.83 572.5,1143.5C 568.167,1143.5 563.833,1143.5 559.5,1143.5C 559.5,1077.83 559.5,1012.17 559.5,946.5C 564.092,946.118 568.425,945.118 572.5,943.5 Z"/></g>
<g><path style="opacity:1" fill="#61747d" d="M 798.5,335.5 C 798.5,544.5 798.5,753.5 798.5,962.5C 924.334,962.167 1050,962.5 1175.5,963.5C 1049.83,963.5 924.167,963.5 798.5,963.5C 797.833,963.5 797.5,963.167 797.5,962.5C 797.167,753.333 797.5,544.333 798.5,335.5 Z"/></g>
<g><path style="opacity:1" fill="#d3faff" d="M 798.5,963.5 C 924.167,963.5 1049.83,963.5 1175.5,963.5C 1175.5,1020.5 1175.5,1077.5 1175.5,1134.5C 1126.17,1134.67 1076.83,1134.5 1027.5,1134C 1076.5,1133.5 1125.5,1133.33 1174.5,1133.5C 1174.5,1077.17 1174.5,1020.83 1174.5,964.5C 1049,964.833 923.666,964.5 798.5,963.5 Z"/></g>
<g><path style="opacity:1" fill="#c7edf2" d="M 1382.5,963.5 C 1509.17,963.5 1635.83,963.5 1762.5,963.5C 1636.33,964.5 1510,964.833 1383.5,964.5C 1383.5,1020.83 1383.5,1077.17 1383.5,1133.5C 1433.17,1133.5 1482.83,1133.5 1532.5,1133.5C 1532.5,1146.83 1532.5,1160.17 1532.5,1173.5C 1590.67,1173.17 1648.67,1173.5 1706.5,1174.5C 1648.17,1174.5 1589.83,1174.5 1531.5,1174.5C 1531.5,1161.5 1531.5,1148.5 1531.5,1135.5C 1481.83,1135.5 1432.17,1135.5 1382.5,1135.5C 1382.5,1078.17 1382.5,1020.83 1382.5,963.5 Z"/></g>
<g><path style="opacity:1" fill="#647882" d="M 657.5,1140.5 C 657.5,1145.17 657.5,1149.83 657.5,1154.5C 659.099,1154.23 660.432,1154.57 661.5,1155.5C 659.833,1155.5 658.167,1155.5 656.5,1155.5C 656.179,1150.31 656.513,1145.31 657.5,1140.5 Z"/></g>
<g><path style="opacity:1" fill="#d4fdff" d="M 1026.5,1135.5 C 1026.5,1148.17 1026.5,1160.83 1026.5,1173.5C 912.5,1173.5 798.5,1173.5 684.5,1173.5C 684.5,1171.17 684.5,1168.83 684.5,1166.5C 685.461,1168.26 685.795,1170.26 685.5,1172.5C 798.833,1172.5 912.167,1172.5 1025.5,1172.5C 1025.17,1159.99 1025.5,1147.66 1026.5,1135.5 Z"/></g>
<g><path style="opacity:1" fill="#424f56" d="M 683.5,1165.5 C 684.167,1165.5 684.5,1165.83 684.5,1166.5C 684.5,1168.83 684.5,1171.17 684.5,1173.5C 798.5,1173.5 912.5,1173.5 1026.5,1173.5C 912.335,1174.5 798.001,1174.83 683.5,1174.5C 683.5,1171.5 683.5,1168.5 683.5,1165.5 Z"/></g>
<g><path style="opacity:1" fill="#d1f9fe" d="M 225.5,1177.5 C 297.167,1177.5 368.833,1177.5 440.5,1177.5C 758.666,1178.33 1077,1178.83 1395.5,1179C 1231.33,1179.17 1067.17,1179.33 903,1179.5C 676.998,1179.71 451.165,1179.04 225.5,1177.5 Z"/></g>
</svg>
